<svg width="800" height="800" viewBox="0 0 800 800" fill="none" xmlns="http://www.w3.org/2000/svg">
<path d="M647.945 0C647.945 136.945 536.948 247.946 399.999 247.946C263.054 247.946 152.056 136.945 152.056 0C152.056 91.2897 226.057 165.301 317.357 165.301C347.466 165.301 375.684 157.247 399.999 143.177C449.412 114.604 482.648 61.1911 482.648 0H647.945Z" fill="#ED145A"/>
<path d="M399.999 143.177C375.684 157.247 347.466 165.301 317.357 165.301C226.054 165.301 152.056 91.2863 152.056 0L317.359 5.5304e-05C317.359 61.1912 350.589 114.604 399.999 143.177Z" fill="#C00848"/>
<path d="M647.945 799.999C647.945 708.712 573.948 634.698 482.648 634.698C452.536 634.698 424.314 642.756 399.999 656.822C350.589 685.398 317.357 738.811 317.357 799.999H152.056C152.056 663.054 263.054 552.056 399.999 552.056C536.948 552.056 647.945 663.054 647.945 799.999Z" fill="#ED145A"/>
<path d="M647.945 799.999H482.648C482.648 738.811 449.412 685.398 399.999 656.822C424.314 642.756 452.536 634.698 482.648 634.698C573.948 634.698 647.945 708.712 647.945 799.999Z" fill="#C00848"/>
<path d="M247.946 400.001C247.946 536.946 136.945 647.947 0 647.947C91.2897 647.947 165.301 573.946 165.301 482.643C165.301 452.534 157.247 424.316 143.181 400.001C114.604 350.591 61.1911 317.356 0 317.356V152.055C136.945 152.055 247.946 263.056 247.946 400.001Z" fill="#ED145A"/>
<path d="M165.301 482.643C165.301 573.946 91.2903 647.944 0.000541031 647.944V482.644C61.1917 482.644 114.604 449.412 143.178 400.002C157.247 424.317 165.301 452.534 165.301 482.643Z" fill="#C00848"/>
<path d="M800 482.644V647.944C663.055 647.944 552.054 536.943 552.054 400.002C552.054 263.057 663.055 152.056 800 152.056C708.714 152.056 634.702 226.056 634.702 317.356C634.702 347.465 642.757 375.683 656.823 400.002C685.399 449.411 738.812 482.644 800 482.644Z" fill="#ED145A"/>
<path d="M800 152.056L800 317.356C738.812 317.356 685.399 350.592 656.823 400.002C642.757 375.687 634.702 347.465 634.702 317.356C634.702 226.056 708.714 152.056 800 152.056Z" fill="#C00848"/>
</svg>
